# xmcd
# 
# Track frame offsets:
#     150
#     10387
#     26766
#     40820
#     62326
#     77794
#     98111
#     110791
#     125856
#     137625
#     153546
#     168901
# 
# Disc length: 2565
# 
# Revision: 0
# Processed by: cddbd v1.5.2PL0 Copyright (c) Steve Scherf et al.
# Submitted via: fre:ac v1.0.27
# 
DISCID=9e0a030c
DTITLE=Rolling Stones, The - Blue and Lonesome
DYEAR=2016
DGENRE=Blues
TTITLE0=Just Your Fool
TTITLE1=Commit A Crime
TTITLE2=Blue And Lonesome
TTITLE3=All Of Your Love
TTITLE4=I Gotta Go
TTITLE5=Everybody Knows About My Good Things
TTITLE6=Ride Em' On Down
TTITLE7=Hate To See You Go
TTITLE8=Hoo Doo Blues
TTITLE9=Little Rain
TTITLE10=Just Like I Treat You
TTITLE11=I Can't Quit You Baby
EXTD=From burnt CD
EXTT0=
EXTT1=
EXTT2=
EXTT3=
EXTT4=
EXTT5=
EXTT6=
EXTT7=
EXTT8=
EXTT9=
EXTT10=
EXTT11=
PLAYORDER=
